HIERARCHY
ROOT hip
{
	OFFSET 0.000000 0.000000 0.000000 
	CHANNELS 6 Xposition Yposition Zposition Xrotation Zrotation Yrotation
	JOINT abdomen
	{
		OFFSET 0.000000 3.402643 0.000000 
		CHANNELS 3 Xrotation Zrotation Yrotation
		JOINT chest
		{
			OFFSET 0.000000 8.438565 -0.680529 
			CHANNELS 3 Xrotation Zrotation Yrotation
			JOINT neck
			{
				OFFSET 0.000000 10.207942 -0.272212 
				CHANNELS 3 Xrotation Zrotation Yrotation
				JOINT head
				{
					OFFSET 0.000000 3.130431 0.000000 
					CHANNELS 3 Xrotation Zrotation Yrotation
					End Site
					{
						OFFSET 0.000000 3.130435 0.000000 
					}
				}
			}
			JOINT lCollar
			{
				OFFSET 3.470700 6.669187 -0.816635 
				CHANNELS 3 Yrotation Zrotation Xrotation
				JOINT lShldr
				{
					OFFSET 3.198488 0.000000 0.000000 
					CHANNELS 3 Zrotation Yrotation Xrotation
					JOINT lForeArm
					{
						OFFSET 10.139888 0.000000 0.000000 
						CHANNELS 3 Yrotation Zrotation Xrotation
						JOINT lHand
						{
							OFFSET 8.370511 0.000000 0.000000 
							CHANNELS 3 Zrotation Yrotation Xrotation
							End Site
							{
								OFFSET 4.083176 0.000000 0.000000 
							}
						}
					}
				}
			}
			JOINT rCollar
			{
				OFFSET -3.470700 6.669187 -0.816635 
				CHANNELS 3 Yrotation Zrotation Xrotation
				JOINT rShldr
				{
					OFFSET -3.198488 0.000000 0.000000 
					CHANNELS 3 Zrotation Yrotation Xrotation
					JOINT rForeArm
					{
						OFFSET -10.139888 0.000000 0.000000 
						CHANNELS 3 Yrotation Zrotation Xrotation
						JOINT rHand
						{
							OFFSET -8.370511 0.000000 0.000000 
							CHANNELS 3 Zrotation Yrotation Xrotation
							End Site
							{
								OFFSET -4.083176 0.000000 0.000000 
							}
						}
					}
				}
			}
		}
	}
	JOINT lThigh
	{
		OFFSET 5.308129 -1.633274 1.361059 
		CHANNELS 3 Xrotation Zrotation Yrotation
		JOINT lShin
		{
			OFFSET -2.041588 -20.007561 0.000000 
			CHANNELS 3 Xrotation Zrotation Yrotation
			JOINT lFoot
			{
				OFFSET 0.000000 -19.190928 -1.224953 
				CHANNELS 3 Xrotation Yrotation Zrotation
				End Site
				{
					OFFSET 0.000000 -2.449906 4.627600 
				}
			}
		}
	}
	JOINT rThigh
	{
		OFFSET -5.308129 -1.633274 1.361059 
		CHANNELS 3 Xrotation Zrotation Yrotation
		JOINT rShin
		{
			OFFSET 2.041588 -20.007561 0.000000 
			CHANNELS 3 Xrotation Zrotation Yrotation
			JOINT rFoot
			{
				OFFSET 0.000000 -19.190928 -1.224953 
				CHANNELS 3 Xrotation Yrotation Zrotation
				End Site
				{
					OFFSET 0.000000 -2.449906 4.627600 
				}
			}
		}
	}
}
MOTION
Frames: 11
Frame Time: 0.016667
-1.238884 44.801693 1.949252 10.995981 -4.736289 -0.235187 0.000000 0.000000 0.000000 4.912356 -0.361328 -0.039123 -8.789158 5.633967 13.003368 0.853662 -3.146981 15.873863 -3.074017 9.556901 0.631683 -64.820206 12.242892 4.996543 2.605539 -1.276924 2.439637 -15.690762 -28.211248 65.446281 2.700022 -10.105243 0.694550 65.391273 17.780643 21.594400 67.861076 0.582295 3.113040 -6.504909 13.476176 13.417448 -47.310436 2.060060 5.117985 60.035732 -1.869780 10.751264 -4.681591 0.595603 2.503139 7.651783 -3.357976 -11.277497 14.216151 2.992060 -46.235607 -14.212702 -4.819916 26.431929 
-1.239065 44.483814 2.642843 11.430029 -4.970701 -0.049491 0.000000 0.000000 0.000000 5.088440 -0.537109 -0.058683 -8.772447 5.854869 13.323019 0.153454 -3.318434 16.297457 -3.074017 9.556901 0.631683 -64.112366 14.912524 1.818344 2.605539 -1.276924 2.439637 -16.082748 -24.002169 68.180893 2.700022 -10.105243 0.694550 66.003471 25.208290 22.744440 72.412949 0.609542 3.192690 -9.588674 11.682086 11.324036 -49.033802 0.858410 6.551951 57.282116 -2.258548 11.951290 -5.499389 1.570332 4.469736 8.147658 -3.182101 -10.345858 14.410131 3.086785 -47.257172 -14.523827 -4.941232 26.973080 
-1.283816 44.029388 3.576681 11.251185 -5.576166 0.087475 0.000000 0.000000 0.000000 5.449219 0.000000 -0.175781 -8.781479 6.074750 13.652584 -0.900015 -2.788890 16.611963 -3.067895 9.732255 0.642924 -64.171188 17.730312 -3.371008 2.429509 -1.274648 2.439963 -16.132406 -18.901239 72.993050 2.696154 -9.929935 0.684923 67.060600 32.487865 24.350161 76.995094 0.613397 3.271285 -11.796248 10.299939 9.982334 -49.692947 0.126550 7.869319 55.765289 -2.218137 13.885291 -7.270422 1.913114 6.633618 9.689449 -2.303695 -11.386498 14.206347 3.030753 -46.221661 -15.297865 -5.617379 27.226479 
-1.314604 43.754196 4.643744 10.076094 -5.937499 0.019426 0.000000 0.000000 0.000000 7.021844 -0.351562 -0.058653 -8.754713 6.146681 14.165658 -1.771522 -2.261114 16.917709 -3.074017 9.556901 0.631683 -64.259323 21.415501 -7.636775 2.429509 -1.274648 2.439963 -15.673289 -16.953346 74.932076 2.700022 -10.105243 0.694550 69.136406 40.876431 25.764469 79.811836 0.603291 3.310232 -12.613500 9.355655 11.026385 -48.878906 0.154866 9.543964 53.479504 -2.600213 14.199177 -8.462337 1.511688 8.415646 12.718375 -1.797068 -10.621205 13.175065 3.160830 -47.330921 -15.280018 -5.564182 26.476397 
-0.976205 43.514969 5.725937 10.539633 -5.058099 -0.804551 0.000000 0.000000 0.000000 6.503906 -1.406250 0.000000 -8.703449 6.453754 15.009696 -1.418569 -2.083501 17.746405 -2.898263 9.558817 0.631779 -65.278343 26.114304 -10.794190 2.429509 -1.274648 2.439963 -14.976396 -16.567507 75.584312 2.875773 -10.103148 0.694452 72.586014 48.460587 28.369085 81.220009 0.612730 3.339303 -11.231702 9.800938 14.781436 -49.029968 -1.787094 10.930431 50.277344 -2.593384 17.592525 -9.734061 1.387896 9.951303 13.149732 -3.183416 -12.848741 13.326757 3.019200 -46.623123 -14.438745 -5.942347 25.659691 
-0.722597 43.271717 7.013618 9.497801 -4.637050 -1.518980 0.000000 0.000000 0.000000 7.380664 -2.099608 0.058554 -8.500113 6.949086 16.009886 -1.249200 -1.923299 18.770435 -2.898263 9.558817 0.631779 -66.448578 30.634464 -11.767375 2.429509 -1.274648 2.439963 -13.465701 -17.921064 72.628532 2.875773 -10.103148 0.694452 77.847496 55.468880 32.436756 80.685707 0.617186 3.331934 -9.907374 11.302907 17.111706 -47.926613 -2.861161 11.368727 48.133293 -2.321165 21.714224 -11.485150 1.187764 9.945402 15.981321 -4.257328 -14.561704 12.792952 3.344409 -45.214993 -13.688663 -6.211762 25.129152 
-0.579638 42.969330 8.239421 9.985435 -5.034694 -2.392468 0.000000 0.000000 0.000000 6.501190 -2.275389 0.068305 -8.451955 7.468277 17.172224 -1.776787 -1.743751 19.989841 -2.898263 9.558817 0.631779 -67.835922 34.794872 -13.915232 2.605539 -1.276924 2.439637 -12.123699 -19.788080 69.676758 2.875773 -10.103148 0.694452 85.363121 60.514931 38.353619 79.989647 0.607593 3.320260 -9.277944 12.409307 17.671631 -48.261738 -2.675228 11.876657 47.565239 -2.426877 24.345039 -13.465693 0.682277 10.374232 16.351540 -4.247959 -14.370975 13.111313 2.959781 -45.040291 -13.357273 -7.241982 23.990690 
-0.308217 42.770863 9.603536 9.934859 -4.868177 -2.568419 0.000000 0.000000 0.000000 6.328033 -2.626935 0.215066 -8.251744 7.746608 17.884775 -1.772974 -1.389216 20.631210 -2.898263 9.558817 0.631779 -69.538330 38.231812 -15.035560 2.605539 -1.276924 2.439637 -11.158293 -20.987717 67.845062 2.875773 -10.103148 0.694452 92.410202 63.946526 43.357441 79.285713 0.608413 3.300473 -8.053537 12.662013 17.729107 -48.242779 -3.038008 11.997631 49.057755 -2.470661 26.512407 -15.279560 0.535314 9.406561 17.749233 -4.599844 -15.120912 12.937985 2.939466 -44.897579 -12.183245 -9.223634 22.441418 
0.052531 42.484348 11.146209 9.165181 -4.743018 -2.068022 0.000000 0.000000 0.000000 6.671082 -2.802722 0.175571 -8.232585 7.796546 18.231031 -2.129523 -1.049021 20.921629 -2.898263 9.558817 0.631779 -71.358276 40.614590 -16.056789 2.605539 -1.276924 2.439637 -9.900261 -21.097456 65.836823 2.875773 -10.103148 0.694452 97.071686 64.766899 47.426304 78.396515 0.603098 3.290501 -8.278915 13.353039 17.504938 -47.348591 -3.730556 12.141086 52.238632 -2.479521 26.611441 -17.701546 0.991009 8.317669 21.736624 -4.981081 -16.906651 10.606997 3.802753 -41.990631 -11.255924 -11.708500 21.220997 
0.464420 42.352310 12.806094 8.996454 -4.782535 -1.901774 0.000000 0.000000 0.000000 6.152455 -2.978500 0.185296 -8.220256 8.014393 18.548052 -2.481253 -0.700171 21.388384 -2.898263 9.558817 0.631779 -73.379280 43.151417 -16.845461 2.605539 -1.276924 2.439637 -9.148529 -21.591522 60.623810 2.875773 -10.103148 0.694452 98.165329 63.975430 50.760612 78.919731 0.587844 3.302102 -9.901555 13.601478 18.310230 -45.728313 -4.248345 12.507069 54.351929 -2.423961 26.508268 -20.465084 -0.689842 7.264145 23.362118 -5.829877 -18.617399 10.868656 3.597679 -37.203976 -10.586134 -15.365884 15.724219 
0.980196 42.530689 14.305608 9.931033 -4.873038 -0.107863 0.000000 0.000000 0.000000 4.918725 -3.154271 0.234557 -8.239745 7.964837 18.210083 -2.476947 0.164441 20.693466 -2.898263 9.558817 0.631779 -75.476707 43.245022 -14.571072 2.779544 -1.454765 2.449302 -10.842344 -23.777622 52.653835 2.875773 -10.103148 0.694452 93.412308 61.407955 48.406391 80.165588 0.593229 3.319890 -10.791717 13.542082 17.734297 -44.380577 -6.357167 12.160755 53.678200 -2.183796 27.401430 -22.475937 -0.569862 6.578162 21.058582 -7.070045 -19.286028 17.004900 3.232491 -33.159580 -6.441516 -16.103306 11.915267 
